<?xml version="1.0" standalone="no"?>
<!DOCTYPE svg PUBLIC "-//W3C//DTD SVG 20010904//EN"
 "http://www.w3.org/TR/2001/REC-SVG-20010904/DTD/svg10.dtd">
<svg version="1.0" xmlns="http://www.w3.org/2000/svg"
 width="266.000000pt" height="266.000000pt" viewBox="0 0 266.000000 266.000000"
 preserveAspectRatio="xMidYMid meet">
<metadata>
Created by potrace 1.14, written by Peter Selinger 2001-2017
</metadata>
<g transform="translate(0.000000,266.000000) scale(0.100000,-0.100000)"
fill="#000000" stroke="none">
<path d="M1119 2475 c-388 -73 -720 -351 -868 -727 -92 -233 -99 -545 -17
-784 224 -659 972 -980 1593 -684 133 63 232 132 327 228 106 107 158 179 221
307 293 590 49 1288 -550 1571 -154 73 -259 96 -460 100 -118 2 -193 -1 -246
-11z m316 -135 c244 -28 447 -125 618 -296 339 -339 393 -859 131 -1267 -63
-99 -220 -250 -322 -311 -176 -105 -361 -152 -567 -143 -298 12 -563 146 -751
381 -246 308 -289 736 -108 1087 158 306 457 513 791 548 111 12 109 12 208 1z"/>
<path d="M1235 2270 c-140 -15 -291 -68 -408 -143 -31 -20 -93 -71 -137 -113
-79 -75 -80 -77 -60 -94 22 -20 26 -51 8 -83 -22 -41 -36 -49 -77 -42 -37 6
-41 4 -55 -23 -20 -39 -11 -66 30 -85 23 -11 32 -21 28 -32 -4 -8 -1 -15 5
-15 6 0 11 5 11 10 0 17 67 12 74 -6 9 -25 7 -64 -4 -64 -17 0 -11 -25 10 -38
30 -18 25 -57 -9 -81 -20 -15 -45 -21 -78 -21 -43 0 -51 -3 -61 -25 -6 -14
-26 -32 -45 -41 -31 -15 -33 -18 -35 -77 -2 -34 -8 -63 -13 -65 -12 -5 -11
-50 3 -112 10 -44 16 -52 40 -57 22 -4 28 -11 28 -31 0 -13 -7 -30 -16 -36
-14 -10 -10 -21 26 -93 149 -290 443 -483 776 -509 45 -4 94 -4 109 0 l27 7
-23 19 c-22 20 -22 20 -1 20 12 0 25 -8 31 -18 37 -66 418 73 515 189 14 16
29 29 34 29 10 0 42 33 42 43 0 11 -58 8 -65 -3 -10 -16 -75 -12 -75 4 0 9 16
15 47 19 26 3 49 10 51 15 2 6 13 6 31 -1 15 -6 34 -8 42 -5 17 7 74 86 67 93
-8 8 -150 -14 -163 -25 -13 -11 -62 -5 -107 12 -32 12 -37 28 -9 28 11 0 21 5
23 11 3 8 14 8 43 0 42 -11 208 -4 237 10 9 5 30 37 48 71 l31 63 -67 3 c-38
2 -72 -2 -78 -8 -15 -15 -156 -12 -186 5 -17 10 -58 14 -132 15 -60 0 -110 4
-113 10 -3 6 3 10 14 10 11 0 23 4 26 10 3 5 21 10 38 10 18 0 39 5 47 10 10
7 -30 10 -122 10 -85 0 -138 4 -138 10 0 6 20 10 45 10 25 0 45 5 45 10 0 6
16 10 36 10 21 0 33 4 29 10 -3 5 -40 10 -82 10 -74 0 -76 1 -59 19 11 12 38
21 84 26 63 6 141 16 255 31 26 3 47 10 47 15 0 5 23 9 50 9 69 0 63 18 -7 22
-46 2 -59 7 -61 21 -3 14 4 17 37 17 45 0 121 20 121 32 0 5 24 8 54 8 30 0
58 5 61 10 3 6 21 10 39 10 34 0 86 20 86 33 0 17 -189 3 -310 -24 -48 -10
-203 -25 -377 -35 l-103 -6 -17 30 c-14 24 -26 32 -53 34 -23 2 -35 8 -35 18
0 22 131 38 318 39 89 1 157 5 157 10 0 5 10 11 22 13 14 2 24 11 25 23 2 11
0 14 -3 8 -3 -7 -23 -13 -44 -13 -21 0 -41 6 -43 13 -4 8 -8 9 -14 1 -9 -12
-272 -25 -312 -15 -22 6 -22 7 12 23 28 13 68 17 186 19 83 1 151 6 151 10 0
5 20 9 45 9 25 0 45 5 45 10 0 6 -11 10 -25 10 -34 0 -33 31 2 48 15 6 49 12
75 12 26 0 48 5 48 10 0 6 35 10 84 10 47 0 88 5 91 10 4 6 11 8 16 5 13 -9
11 6 -6 35 -19 35 -139 55 -200 34 -22 -8 -101 -19 -175 -25 -155 -11 -452 -9
-405 4 17 5 38 12 47 18 10 5 31 9 47 9 16 0 31 6 34 14 7 17 -33 46 -63 46
-27 0 -50 23 -50 49 0 14 -6 21 -20 21 -11 0 -20 4 -20 9 0 5 30 11 68 14 37
3 96 13 132 22 39 10 131 18 233 22 97 3 167 10 167 15 0 7 -86 8 -239 4 -164
-5 -241 -4 -246 3 -4 7 10 11 39 11 25 0 48 5 51 10 3 6 43 10 88 11 45 1 93
4 107 8 22 7 19 9 -20 14 -25 3 -52 6 -60 7 -70 2 -126 30 -61 30 16 0 41 4
55 9 13 6 70 11 125 12 115 3 116 5 21 69 -185 125 -419 185 -635 160z m-399
-343 c8 -24 -14 -49 -40 -45 -25 4 -34 50 -14 71 15 17 45 3 54 -26z m204
-330 c0 -5 -7 -2 -15 7 -8 8 -15 20 -15 27 0 14 29 -20 30 -34z m664 35 l40
-7 -30 -14 c-16 -7 -59 -16 -96 -19 -47 -3 -68 -9 -68 -18 0 -34 -56 -44 -340
-60 -58 -3 -112 -9 -120 -14 -8 -5 -21 -5 -30 0 -8 4 -44 11 -80 14 -36 4 -70
12 -77 18 -21 17 -15 56 11 73 29 19 52 11 68 -25 8 -18 16 -26 23 -20 15 12
46 15 82 6 41 -9 69 -1 76 23 6 25 50 31 272 40 99 4 191 8 205 8 14 1 43 -1
64 -5z m-916 -372 c17 -11 32 -27 32 -37 0 -29 -31 -53 -69 -54 -20 0 -30 -3
-23 -6 15 -6 16 -60 0 -65 -6 -2 -11 -21 -10 -41 1 -20 -3 -37 -8 -37 -6 0
-10 7 -10 15 0 8 -9 15 -20 15 -12 0 -20 -7 -20 -16 0 -9 -5 -13 -12 -10 -7 3
-21 9 -30 12 -10 4 -18 10 -18 15 0 5 -8 9 -18 9 -26 0 -93 38 -125 71 -24 24
-27 34 -21 64 6 33 9 35 43 35 21 0 41 -3 44 -6 4 -4 29 -15 57 -24 l51 -17
34 32 c19 17 35 36 35 42 0 27 46 28 88 3z m711 -34 c26 -32 -107 -51 -436
-62 -109 -4 -173 -3 -173 3 0 17 75 33 153 33 42 0 79 5 82 10 3 6 24 10 46
10 21 0 39 4 39 8 0 5 62 9 139 10 108 2 141 -1 150 -12z m-109 -186 c10 -7
-8 -9 -60 -8 l-75 1 55 7 c30 4 57 7 60 8 3 1 12 -3 20 -8z m313 -137 c-7 -2
-19 -2 -25 0 -7 3 -2 5 12 5 14 0 19 -2 13 -5z m-113 -13 c15 -10 -30 -14
-166 -15 -29 0 -55 -3 -60 -7 -12 -13 -24 -9 -24 7 0 11 20 15 93 18 50 1 103
4 117 5 14 1 32 -3 40 -8z"/>
<path d="M2030 1883 c0 -5 -14 -16 -30 -25 -38 -22 -38 -43 0 -60 35 -15 40
-45 8 -51 -37 -7 62 -7 119 -1 l52 7 -21 41 c-40 79 -57 96 -94 96 -19 0 -34
-3 -34 -7z"/>
<path d="M458 1649 c-16 -25 -38 -92 -38 -116 0 -7 9 -13 21 -13 14 0 19 -5
16 -14 -4 -10 -1 -13 9 -9 7 3 14 12 14 20 0 35 72 61 83 31 2 -7 8 -10 12 -6
11 10 -39 56 -66 60 -19 2 -25 11 -29 38 l-5 34 -17 -25z"/>
<path d="M2113 1512 c-102 -12 -133 -19 -133 -30 0 -12 21 -13 137 -7 76 3
140 8 144 11 9 5 -1 45 -10 43 -3 -1 -66 -9 -138 -17z"/>
<path d="M2101 1428 c-74 -6 -118 -14 -127 -23 -13 -12 5 -13 123 -9 166 6
184 9 177 29 -7 16 -6 16 -173 3z"/>
<path d="M2213 1148 c-133 -25 -134 -26 -45 -27 66 -1 84 2 89 14 8 21 4 22
-44 13z"/>
<path d="M1933 1123 c9 -2 25 -2 35 0 9 3 1 5 -18 5 -19 0 -27 -2 -17 -5z"/>
<path d="M2048 1123 c6 -2 18 -2 25 0 6 3 1 5 -13 5 -14 0 -19 -2 -12 -5z"/>
<path d="M2110 1070 c-24 -5 -28 -8 -12 -9 13 0 20 -5 17 -11 -4 -6 9 -10 32
-11 21 -1 47 -2 58 -3 21 -1 35 11 35 32 0 13 -70 15 -130 2z"/>
</g>
</svg>
